<svg width="51" height="51" viewBox="0 0 51 51" fill="none" xmlns="http://www.w3.org/2000/svg">
<path d="M32.6012 25.7789L48.754 9.63021C50.782 7.60177 50.782 4.3287 48.754 2.30026C46.7261 0.271823 43.4538 0.271823 41.4258 2.30026L25.273 18.449L9.12418 2.29632C7.09622 0.267885 3.82392 0.267885 1.79596 2.29632C-0.231996 4.32476 -0.231996 7.59783 1.79596 9.62627L17.9487 25.775L1.79596 41.9237C-0.231996 43.9522 -0.231996 47.2252 1.79596 49.2537C3.82786 51.2821 7.11197 51.2821 9.12418 49.2537L25.277 33.1049L41.4297 49.2537C43.4577 51.2821 46.73 51.2821 48.758 49.2537C50.7702 47.2252 50.7702 43.9522 48.7383 41.9198L32.6012 25.7789Z" fill="white"/>
</svg>
