<svg width="218" height="354" viewBox="0 0 218 354" fill="none" xmlns="http://www.w3.org/2000/svg">
<g clip-path="url(#clip0_348_63)">
<path d="M105.512 334.672L116.392 349.776C120.659 347.728 124.584 344.869 128.168 341.2C131.752 337.531 134.611 333.221 136.744 328.272C138.792 323.237 139.816 317.819 139.816 312.016C139.816 307.835 139.176 303.781 137.896 299.856C136.701 295.845 134.909 292.304 132.52 289.232C130.131 286.075 127.187 283.6 123.688 281.808C120.104 279.931 116.051 278.992 111.528 278.992C107.773 278.992 104.445 279.589 101.544 280.784C98.6427 281.979 96.0827 283.643 93.864 285.776C91.6453 287.824 89.768 290.213 88.232 292.944C86.6107 295.675 85.2027 298.619 84.008 301.776C82.5573 305.957 81.192 309.541 79.912 312.528C78.632 315.429 77.224 317.691 75.688 319.312C74.152 320.848 72.36 321.616 70.312 321.616C68.3493 321.616 66.728 320.805 65.448 319.184C64.0827 317.563 63.4 315.216 63.4 312.144C63.4 309.84 63.8693 307.707 64.808 305.744C65.6613 303.696 66.8987 301.861 68.52 300.24C70.056 298.533 71.8907 297.04 74.024 295.76L64.808 279.248C61.736 280.784 58.7067 283.003 55.72 285.904C52.7333 288.805 50.2587 292.475 48.296 296.912C46.3333 301.264 45.352 306.427 45.352 312.4C45.352 318.203 46.376 323.493 48.424 328.272C50.3867 332.965 53.288 336.72 57.128 339.536C60.968 342.267 65.5333 343.632 70.824 343.632C75.2613 343.632 79.0587 342.821 82.216 341.2C85.288 339.579 87.9333 337.531 90.152 335.056C92.2853 332.581 94.0347 329.979 95.4 327.248C96.7653 324.432 97.832 321.957 98.6 319.824C100.221 315.472 101.672 311.973 102.952 309.328C104.232 306.683 105.597 304.763 107.048 303.568C108.413 302.373 110.248 301.776 112.552 301.776C115.283 301.776 117.459 302.8 119.08 304.848C120.616 306.896 121.384 309.499 121.384 312.656C121.384 315.643 120.744 318.501 119.464 321.232C118.184 323.877 116.349 326.352 113.96 328.656C111.571 330.875 108.755 332.88 105.512 334.672ZM92.2 246.736C86.9093 246.736 82.2587 245.712 78.248 243.664C74.152 241.531 70.952 238.587 68.648 234.832C66.344 230.992 65.192 226.512 65.192 221.392C65.192 216.187 66.344 211.707 68.648 207.952C70.952 204.197 74.152 201.296 78.248 199.248C82.2587 197.2 86.9093 196.176 92.2 196.176C97.4907 196.176 102.184 197.243 106.28 199.376C110.291 201.424 113.448 204.368 115.752 208.208C118.056 211.963 119.208 216.357 119.208 221.392C119.208 226.512 118.056 230.992 115.752 234.832C113.448 238.587 110.291 241.531 106.28 243.664C102.184 245.712 97.4907 246.736 92.2 246.736ZM92.2 269.648C99.112 269.648 105.469 268.496 111.272 266.192C117.075 263.803 122.109 260.475 126.376 256.208C130.643 251.856 133.971 246.736 136.36 240.848C138.664 234.96 139.816 228.475 139.816 221.392C139.816 214.395 138.664 207.952 136.36 202.064C133.971 196.176 130.643 191.099 126.376 186.832C122.109 182.48 117.075 179.152 111.272 176.848C105.469 174.459 99.112 173.264 92.2 173.264C85.288 173.264 78.9733 174.459 73.256 176.848C67.5387 179.237 62.5893 182.608 58.408 186.96C54.2267 191.312 51.0267 196.432 48.808 202.32C46.504 208.123 45.352 214.48 45.352 221.392C45.352 228.219 46.504 234.576 48.808 240.464C51.0267 246.352 54.2267 251.472 58.408 255.824C62.5893 260.176 67.5387 263.589 73.256 266.064C78.9733 268.453 85.288 269.648 92.2 269.648ZM47.4 159.403H137V101.803H118.44V137.771H47.4V159.403ZM92.2 77.861C86.9093 77.861 82.2587 76.837 78.248 74.789C74.152 72.656 70.952 69.712 68.648 65.957C66.344 62.117 65.192 57.637 65.192 52.517C65.192 47.312 66.344 42.832 68.648 39.077C70.952 35.322 74.152 32.421 78.248 30.373C82.2587 28.325 86.9093 27.301 92.2 27.301C97.4907 27.301 102.184 28.368 106.28 30.501C110.291 32.549 113.448 35.493 115.752 39.333C118.056 43.088 119.208 47.482 119.208 52.517C119.208 57.637 118.056 62.117 115.752 65.957C113.448 69.712 110.291 72.656 106.28 74.789C102.184 76.837 97.4907 77.861 92.2 77.861ZM92.2 100.773C99.112 100.773 105.469 99.621 111.272 97.317C117.075 94.928 122.109 91.6 126.376 87.333C130.643 82.981 133.971 77.861 136.36 71.973C138.664 66.085 139.816 59.6 139.816 52.517C139.816 45.52 138.664 39.077 136.36 33.189C133.971 27.301 130.643 22.224 126.376 17.957C122.109 13.605 117.075 10.277 111.272 7.97299C105.469 5.58399 99.112 4.38901 92.2 4.38901C85.288 4.38901 78.9733 5.58399 73.256 7.97299C67.5387 10.362 62.5893 13.733 58.408 18.085C54.2267 22.437 51.0267 27.557 48.808 33.445C46.504 39.248 45.352 45.605 45.352 52.517C45.352 59.344 46.504 65.701 48.808 71.589C51.0267 77.477 54.2267 82.597 58.408 86.949C62.5893 91.301 67.5387 94.714 73.256 97.189C78.9733 99.578 85.288 100.773 92.2 100.773Z" fill="#FFE7FA"/>
<path d="M148.636 181.136H201V187.273L159.886 215.807V216.318H201V222.659H148.636V216.523L189.852 187.886V187.375H148.636V181.136ZM201 166.3V172.948L148.636 153.721V147.175L201 127.948V134.596L156.92 150.244V150.653L201 166.3ZM180.545 163.846V137.05H186.17V163.846H180.545ZM148.636 113.451H201V119.792H148.636V113.451ZM201 100.737H148.636V94.396H195.375V70.055H201V100.737ZM161.727 31.601C159.136 31.908 157.125 33.152 155.693 35.334C154.261 37.516 153.545 40.192 153.545 43.362C153.545 45.68 153.92 47.709 154.67 49.447C155.42 51.169 156.452 52.516 157.764 53.487C159.077 54.442 160.568 54.919 162.239 54.919C163.636 54.919 164.838 54.587 165.844 53.922C166.832 53.24 167.659 52.371 168.324 51.314C168.972 50.257 169.509 49.149 169.935 47.99C170.344 46.831 170.676 45.766 170.932 44.794L172.364 39.476C172.722 38.112 173.216 36.595 173.847 34.925C174.477 33.237 175.338 31.626 176.429 30.092C177.503 28.541 178.884 27.263 180.571 26.257C182.259 25.251 184.33 24.749 186.784 24.749C189.614 24.749 192.17 25.49 194.455 26.973C196.739 28.439 198.554 30.587 199.901 33.416C201.247 36.229 201.92 39.646 201.92 43.669C201.92 47.419 201.315 50.666 200.105 53.411C198.895 56.138 197.207 58.286 195.043 59.854C192.878 61.405 190.364 62.283 187.5 62.487V55.942C189.477 55.771 191.114 55.107 192.409 53.947C193.687 52.771 194.642 51.288 195.273 49.499C195.886 47.692 196.193 45.749 196.193 43.669C196.193 41.249 195.801 39.075 195.017 37.149C194.216 35.223 193.108 33.697 191.693 32.572C190.261 31.447 188.591 30.885 186.682 30.885C184.943 30.885 183.528 31.371 182.438 32.342C181.347 33.314 180.46 34.592 179.778 36.178C179.097 37.763 178.5 39.476 177.989 41.317L176.148 47.76C174.972 51.851 173.293 55.089 171.111 57.476C168.929 59.862 166.074 61.055 162.545 61.055C159.614 61.055 157.057 60.263 154.875 58.678C152.676 57.075 150.972 54.928 149.761 52.234C148.534 49.524 147.92 46.499 147.92 43.158C147.92 39.783 148.526 36.783 149.736 34.158C150.929 31.533 152.565 29.453 154.645 27.919C156.724 26.368 159.085 25.55 161.727 25.464V31.601Z" fill="#FFE7FA"/>
</g>
<defs>
<clipPath id="clip0_348_63">
<rect width="354" height="218" fill="white" transform="translate(0 354) rotate(-90)"/>
</clipPath>
</defs>
</svg>
